<svg width="32" height="32" viewBox="0 0 32 32" fill="none" xmlns="http://www.w3.org/2000/svg">
<path d="M16.0002 20.0015C15.8248 20.0026 15.6508 19.9689 15.4884 19.9026C15.3259 19.8362 15.1782 19.7385 15.0536 19.6149L9.72025 14.2815C9.46918 14.0305 9.32812 13.69 9.32812 13.3349C9.32812 12.9798 9.46918 12.6393 9.72025 12.3882C9.97132 12.1371 10.3118 11.9961 10.6669 11.9961C11.022 11.9961 11.3625 12.1371 11.6136 12.3882L16.0002 16.7882L20.3869 12.4015C20.642 12.1831 20.9701 12.069 21.3057 12.0819C21.6412 12.0949 21.9595 12.234 22.197 12.4715C22.4345 12.7089 22.5736 13.0272 22.5865 13.3628C22.5995 13.6984 22.4853 14.0265 22.2669 14.2815L16.9336 19.6149C16.6852 19.8612 16.35 20.0001 16.0002 20.0015Z" fill="#2E2E2E"/>
</svg>
