<svg width="32" height="32" viewBox="0 0 32 32" fill="none" xmlns="http://www.w3.org/2000/svg">
<g clip-path="url(#clip0_308_2989)">
<path fill-rule="evenodd" clip-rule="evenodd" d="M10.0003 28H18.5C19.0521 28 19.5001 28.4479 19.5001 28.9999C19.5001 29.5519 19.0521 29.9998 18.5 29.9998H9.00013C8.448 29.9998 8 29.5519 8 28.9999V5.99992C8 5.44792 8.448 5 9.00013 5H23.0001C23.5523 5 24.0003 5.44792 24.0003 5.99992V28.9999C24.0003 29.5519 23.5523 29.9998 23.0001 29.9998H22.5001C21.9484 29.9998 21.4999 29.5519 21.4999 28.9999C21.4999 28.6302 21.7012 28.3071 22 28.134V6.99985H10.0003V28Z" fill="#F77A40"/>
<path d="M24 3H8V6H24V3Z" fill="#F4B943" fill-opacity="0.5"/>
<path fill-rule="evenodd" clip-rule="evenodd" d="M25 3C25 2.4475 24.5525 2 24 2H8C7.44756 2 7 2.4475 7 3V6C7 6.5525 7.44756 7 8 7H24C24.5525 7 25 6.5525 25 6V3ZM9 4V5H23V4H9Z" fill="#F77A40"/>
<path fill-rule="evenodd" clip-rule="evenodd" d="M19 23.0002C19 22.4482 18.5525 22 18 22H14C13.4475 22 13 22.4482 13 23.0002V29.0002C13 29.5522 13.4475 30.0004 14 30.0004H18C18.5525 30.0004 19 29.5522 19 29.0002V23.0002ZM15 24.0004V28H17V24.0004H15Z" fill="#F77A40"/>
<path fill-rule="evenodd" clip-rule="evenodd" d="M19 17.5C19 17.224 18.776 17 18.5 17H17.5C17.224 17 17 17.224 17 17.5V18.5C17 18.776 17.224 19 17.5 19H18.5C18.776 19 19 18.776 19 18.5V17.5Z" fill="#F77A40"/>
<path fill-rule="evenodd" clip-rule="evenodd" d="M19 13.5C19 13.224 18.776 13 18.5 13H17.5C17.224 13 17 13.224 17 13.5V14.5C17 14.776 17.224 15 17.5 15H18.5C18.776 15 19 14.776 19 14.5V13.5Z" fill="#F77A40"/>
<path fill-rule="evenodd" clip-rule="evenodd" d="M19 9.5C19 9.224 18.776 9 18.5 9H17.5C17.224 9 17 9.224 17 9.5V10.5C17 10.776 17.224 11 17.5 11H18.5C18.776 11 19 10.776 19 10.5V9.5Z" fill="#F77A40"/>
<path fill-rule="evenodd" clip-rule="evenodd" d="M14.5 17.5C14.5 17.224 14.276 17 14 17H13C12.724 17 12.5 17.224 12.5 17.5V18.5C12.5 18.776 12.724 19 13 19H14C14.276 19 14.5 18.776 14.5 18.5V17.5Z" fill="#F77A40"/>
<path fill-rule="evenodd" clip-rule="evenodd" d="M14.5 13.5C14.5 13.224 14.276 13 14 13H13C12.724 13 12.5 13.224 12.5 13.5V14.5C12.5 14.776 12.724 15 13 15H14C14.276 15 14.5 14.776 14.5 14.5V13.5Z" fill="#F77A40"/>
<path fill-rule="evenodd" clip-rule="evenodd" d="M14.5 9.5C14.5 9.224 14.276 9 14 9H13C12.724 9 12.5 9.224 12.5 9.5V10.5C12.5 10.776 12.724 11 13 11H14C14.276 11 14.5 10.776 14.5 10.5V9.5Z" fill="#F77A40"/>
<path d="M9 21H5V28.9999H9V21Z" fill="#F4B943" fill-opacity="0.5"/>
<path fill-rule="evenodd" clip-rule="evenodd" d="M10 21C10 20.4478 9.55245 20 9.00001 20H5C4.44756 20 4 20.4478 4 21V28.9999C4 29.5521 4.44756 29.9999 5 29.9999H9.00001C9.55245 29.9999 10 29.5521 10 28.9999V21ZM6 22V27.9999H8.00001V22H6Z" fill="#F77A40"/>
<path d="M27 21H23V28.9999H27V21Z" fill="#F4B943" fill-opacity="0.5"/>
<path fill-rule="evenodd" clip-rule="evenodd" d="M28 21C28 20.4478 27.5525 20 27 20H23C22.4476 20 22 20.4478 22 21V28.9999C22 29.5521 22.4476 29.9999 23 29.9999H27C27.5525 29.9999 28 29.5521 28 28.9999V21ZM24 22V27.9999H26V22H24Z" fill="#F77A40"/>
<path fill-rule="evenodd" clip-rule="evenodd" d="M23 22H28C28.5521 22 29 21.552 29 21C29 20.448 28.5521 20 28 20H23C22.4479 20 22 20.448 22 21C22 21.552 22.4479 22 23 22Z" fill="#F77A40"/>
<path fill-rule="evenodd" clip-rule="evenodd" d="M4 22H8.99998C9.55206 22 9.99997 21.552 9.99997 21C9.99997 20.448 9.55206 20 8.99998 20H4C3.44792 20 3 20.448 3 21C3 21.552 3.44792 22 4 22Z" fill="#F77A40"/>
<path fill-rule="evenodd" clip-rule="evenodd" d="M3 30H5C5.552 30 6 29.552 6 29C6 28.448 5.552 28 5 28H3C2.448 28 2 28.448 2 29C2 29.552 2.448 30 3 30Z" fill="#F77A40"/>
<path fill-rule="evenodd" clip-rule="evenodd" d="M27 30H29C29.552 30 30 29.552 30 29C30 28.448 29.552 28 29 28H27C26.448 28 26 28.448 26 29C26 29.552 26.448 30 27 30Z" fill="#F77A40"/>
</g>
<defs>
<clipPath id="clip0_308_2989">
<rect width="32" height="32" fill="white"/>
</clipPath>
</defs>
</svg>
