<svg width="24" height="25" viewBox="0 0 24 25" fill="none" xmlns="http://www.w3.org/2000/svg">
<path d="M20.4604 10.1284C20.32 8.66727 19.8036 7.26744 18.9616 6.06517C18.1195 4.86291 16.9805 3.89919 15.6554 3.26785C14.3303 2.63651 12.8642 2.35908 11.4001 2.46256C9.93592 2.56604 8.5235 3.04692 7.30037 3.85836C6.24957 4.561 5.36742 5.48765 4.71731 6.57175C4.0672 7.65584 3.66526 8.87046 3.54037 10.1284C3.41785 11.378 3.57504 12.6393 4.00054 13.8206C4.42604 15.002 5.10917 16.0738 6.00037 16.9584L11.3004 22.2684C11.3933 22.3621 11.5039 22.4365 11.6258 22.4872C11.7477 22.538 11.8784 22.5642 12.0104 22.5642C12.1424 22.5642 12.2731 22.538 12.3949 22.4872C12.5168 22.4365 12.6274 22.3621 12.7204 22.2684L18.0004 16.9584C18.8916 16.0738 19.5747 15.002 20.0002 13.8206C20.4257 12.6393 20.5829 11.378 20.4604 10.1284ZM16.6004 15.5484L12.0004 20.1484L7.40037 15.5484C6.72246 14.8704 6.20317 14.0507 5.87984 13.1481C5.5565 12.2455 5.43715 11.2826 5.53037 10.3284C5.62419 9.35946 5.93213 8.42352 6.43194 7.5882C6.93175 6.75288 7.61093 6.03906 8.42037 5.49836C9.48131 4.79359 10.7267 4.41765 12.0004 4.41765C13.2741 4.41765 14.5194 4.79359 15.5804 5.49836C16.3874 6.03697 17.065 6.74764 17.5647 7.57929C18.0644 8.41095 18.3737 9.34296 18.4704 10.3084C18.5666 11.2658 18.4488 12.2326 18.1254 13.1389C17.8019 14.0452 17.281 14.8682 16.6004 15.5484ZM12.0004 6.49836C11.1104 6.49836 10.2403 6.76228 9.5003 7.25674C8.76028 7.75121 8.18351 8.45401 7.84291 9.27628C7.50232 10.0985 7.4132 11.0033 7.58684 11.8763C7.76047 12.7492 8.18905 13.551 8.81839 14.1803C9.44773 14.8097 10.2495 15.2383 11.1225 15.4119C11.9954 15.5855 12.9002 15.4964 13.7224 15.1558C14.5447 14.8152 15.2475 14.2384 15.742 13.4984C16.2364 12.7584 16.5004 11.8884 16.5004 10.9984C16.4977 9.80569 16.0228 8.66263 15.1794 7.81929C14.3361 6.97595 13.193 6.501 12.0004 6.49836ZM12.0004 13.4984C11.5059 13.4984 11.0226 13.3517 10.6114 13.077C10.2003 12.8023 9.87989 12.4119 9.69067 11.9551C9.50145 11.4982 9.45194 10.9956 9.54841 10.5106C9.64487 10.0257 9.88297 9.58022 10.2326 9.23059C10.5822 8.88096 11.0277 8.64286 11.5126 8.54639C11.9976 8.44993 12.5003 8.49944 12.9571 8.68866C13.4139 8.87788 13.8043 9.19831 14.079 9.60943C14.3537 10.0206 14.5004 10.5039 14.5004 10.9984C14.5004 11.6614 14.237 12.2973 13.7681 12.7661C13.2993 13.235 12.6634 13.4984 12.0004 13.4984Z" fill="#F77A40"/>
</svg>
